<svg width="21" height="21" viewBox="0 0 21 21" fill="none" xmlns="http://www.w3.org/2000/svg">
<path d="M10.6665 1.75C5.83447 1.75 1.9165 5.66797 1.9165 10.5C1.9165 15.332 5.83447 19.25 10.6665 19.25C15.4985 19.25 19.4165 15.332 19.4165 10.5C19.4165 5.66797 15.4985 1.75 10.6665 1.75ZM10.6665 17.7656C6.65479 17.7656 3.40088 14.5117 3.40088 10.5C3.40088 6.48828 6.65479 3.23438 10.6665 3.23438C14.6782 3.23438 17.9321 6.48828 17.9321 10.5C17.9321 14.5117 14.6782 17.7656 10.6665 17.7656Z" fill="white"/>
<path d="M14.0786 12.9727L11.2935 10.959V6.125C11.2935 6.03906 11.2231 5.96875 11.1372 5.96875H10.1978C10.1118 5.96875 10.0415 6.03906 10.0415 6.125V11.5039C10.0415 11.5547 10.0649 11.6016 10.106 11.6309L13.3364 13.9863C13.4067 14.0371 13.5044 14.0215 13.5552 13.9531L14.1138 13.1914C14.1646 13.1191 14.1489 13.0215 14.0786 12.9727Z" fill="white"/>
</svg>
