<svg width="25" height="25" viewBox="0 0 25 25" fill="none" xmlns="http://www.w3.org/2000/svg">
<g clip-path="url(#clip0_66_70)">
<path d="M12.1685 7.82374L4.16634 14.4145V21.5277C4.16634 21.7119 4.2395 21.8885 4.36974 22.0188C4.49997 22.149 4.67661 22.2222 4.86078 22.2222L9.7245 22.2096C9.90808 22.2087 10.0838 22.1351 10.2133 22.005C10.3428 21.8748 10.4155 21.6987 10.4155 21.5152V17.3611C10.4155 17.1769 10.4886 17.0003 10.6189 16.87C10.7491 16.7398 10.9257 16.6666 11.1099 16.6666H13.8877C14.0719 16.6666 14.2485 16.7398 14.3787 16.87C14.509 17.0003 14.5821 17.1769 14.5821 17.3611V21.5121C14.5819 21.6035 14.5996 21.694 14.6344 21.7785C14.6691 21.863 14.7203 21.9398 14.7848 22.0046C14.8493 22.0693 14.9259 22.1206 15.0103 22.1557C15.0947 22.1907 15.1852 22.2087 15.2766 22.2087L20.1386 22.2222C20.3227 22.2222 20.4994 22.149 20.6296 22.0188C20.7598 21.8885 20.833 21.7119 20.833 21.5277V14.4097L12.8326 7.82374C12.7385 7.74793 12.6213 7.70659 12.5005 7.70659C12.3797 7.70659 12.2626 7.74793 12.1685 7.82374ZM24.8087 12.3033L21.1802 9.31246V3.30074C21.1802 3.16261 21.1254 3.03013 21.0277 2.93246C20.93 2.83478 20.7975 2.77991 20.6594 2.77991H18.2288C18.0907 2.77991 17.9582 2.83478 17.8606 2.93246C17.7629 3.03013 17.708 3.16261 17.708 3.30074V6.45222L13.8222 3.25517C13.4492 2.9483 12.9813 2.78052 12.4984 2.78052C12.0154 2.78052 11.5475 2.9483 11.1746 3.25517L0.188042 12.3033C0.135302 12.3469 0.0916684 12.4005 0.0596336 12.461C0.0275989 12.5214 0.00779113 12.5876 0.00134208 12.6557C-0.00510697 12.7238 0.00192911 12.7925 0.0220483 12.8579C0.0421674 12.9233 0.0749754 12.9841 0.118598 13.0369L1.22537 14.3823C1.26887 14.4352 1.32238 14.479 1.38283 14.5112C1.44328 14.5434 1.50949 14.5634 1.57766 14.5699C1.64584 14.5765 1.71464 14.5696 1.78013 14.5495C1.84561 14.5295 1.9065 14.4967 1.95931 14.4531L12.1685 6.04423C12.2626 5.96842 12.3797 5.92707 12.5005 5.92707C12.6213 5.92707 12.7385 5.96842 12.8326 6.04423L23.0422 14.4531C23.0949 14.4967 23.1557 14.5295 23.2211 14.5496C23.2865 14.5698 23.3552 14.5768 23.4234 14.5703C23.4915 14.5639 23.5576 14.5441 23.6181 14.512C23.6786 14.48 23.7321 14.4364 23.7757 14.3836L24.8825 13.0382C24.9261 12.9851 24.9587 12.924 24.9786 12.8583C24.9985 12.7927 25.0052 12.7237 24.9983 12.6554C24.9915 12.5871 24.9712 12.5209 24.9387 12.4605C24.9061 12.4 24.8619 12.3466 24.8087 12.3033Z" fill="black"/>
</g>
<defs>
<clipPath id="clip0_66_70">
<rect width="25" height="25" fill="white"/>
</clipPath>
</defs>
</svg>
