<svg width="25" height="25" viewBox="0 0 25 25" fill="none" xmlns="http://www.w3.org/2000/svg">
<g clip-path="url(#clip0_127_147)">
<path d="M24.3056 4.16669C24.6892 4.16669 25 3.85593 25 3.47225V2.08336C25 1.69968 24.6892 1.38892 24.3056 1.38892H0.694444C0.310764 1.38892 0 1.69968 0 2.08336V3.47225C0 3.85593 0.310764 4.16669 0.694444 4.16669H1.38802V20.8334H0.694444C0.310764 20.8334 0 21.1441 0 21.5278V22.9167C0 23.3004 0.310764 23.6111 0.694444 23.6111H11.1111V20.1389C11.1111 19.757 11.4236 19.4445 11.8056 19.4445H13.1944C13.5764 19.4445 13.8889 19.757 13.8889 20.1389V23.6111H24.3056C24.6892 23.6111 25 23.3004 25 22.9167V21.5278C25 21.1441 24.6892 20.8334 24.3056 20.8334H23.6111V4.16669H24.3056ZM11.1111 6.11114C11.1111 5.83336 11.3889 5.55558 11.6667 5.55558H13.3333C13.6111 5.55558 13.8889 5.83336 13.8889 6.11114V7.7778C13.8889 8.05558 13.6111 8.33336 13.3333 8.33336H11.6667C11.3889 8.33336 11.1111 8.05558 11.1111 7.7778V6.11114ZM11.1111 10.2778C11.1111 10 11.3889 9.72225 11.6667 9.72225H13.3333C13.6111 9.72225 13.8889 10 13.8889 10.2778V11.9445C13.8889 12.2222 13.6111 12.5 13.3333 12.5H11.6667C11.3889 12.5 11.1111 12.2222 11.1111 11.9445V10.2778ZM5.55556 6.11114C5.55556 5.83336 5.83333 5.55558 6.11111 5.55558H7.77778C8.05556 5.55558 8.33333 5.83336 8.33333 6.11114V7.7778C8.33333 8.05558 8.05556 8.33336 7.77778 8.33336H6.11111C5.83333 8.33336 5.55556 8.05558 5.55556 7.7778V6.11114ZM7.77778 12.5H6.11111C5.83333 12.5 5.55556 12.2222 5.55556 11.9445V10.2778C5.55556 10 5.83333 9.72225 6.11111 9.72225H7.77778C8.05556 9.72225 8.33333 10 8.33333 10.2778V11.9445C8.33333 12.2222 8.05556 12.5 7.77778 12.5ZM8.33333 18.0556C8.33333 15.7544 10.1988 13.8889 12.5 13.8889C14.8012 13.8889 16.6667 15.7544 16.6667 18.0556H8.33333ZM19.4444 11.9445C19.4444 12.2222 19.1667 12.5 18.8889 12.5H17.2222C16.9444 12.5 16.6667 12.2222 16.6667 11.9445V10.2778C16.6667 10 16.9444 9.72225 17.2222 9.72225H18.8889C19.1667 9.72225 19.4444 10 19.4444 10.2778V11.9445ZM19.4444 7.7778C19.4444 8.05558 19.1667 8.33336 18.8889 8.33336H17.2222C16.9444 8.33336 16.6667 8.05558 16.6667 7.7778V6.11114C16.6667 5.83336 16.9444 5.55558 17.2222 5.55558H18.8889C19.1667 5.55558 19.4444 5.83336 19.4444 6.11114V7.7778Z" fill="black"/>
</g>
<defs>
<clipPath id="clip0_127_147">
<rect width="25" height="25" fill="white"/>
</clipPath>
</defs>
</svg>
