<svg width="21" height="21" viewBox="0 0 21 21" fill="none" xmlns="http://www.w3.org/2000/svg">
<path d="M16.9166 18.625H16.8103C4.5291 17.9187 2.78535 7.55625 2.5416 4.39375C2.52196 4.14786 2.55103 3.90052 2.62714 3.66588C2.70326 3.43125 2.82493 3.21394 2.98517 3.02641C3.14542 2.83888 3.34109 2.6848 3.56098 2.57302C3.78087 2.46124 4.02066 2.39395 4.2666 2.375H7.71035C7.9607 2.37476 8.20535 2.44969 8.41262 2.5901C8.61989 2.73051 8.78022 2.92992 8.87285 3.1625L9.82285 5.5C9.91432 5.72722 9.93702 5.9763 9.88813 6.21631C9.83924 6.45631 9.72091 6.67667 9.54785 6.85L8.2166 8.19375C8.42455 9.37547 8.99046 10.4648 9.83778 11.3143C10.6851 12.1639 11.7729 12.7327 12.9541 12.9438L14.3103 11.6C14.4863 11.4288 14.7087 11.3133 14.9499 11.2677C15.1911 11.2221 15.4403 11.2486 15.6666 11.3438L18.0229 12.2875C18.2519 12.3831 18.4474 12.5446 18.5843 12.7517C18.7212 12.9587 18.7934 13.2018 18.7916 13.45V16.75C18.7916 17.2473 18.5941 17.7242 18.2424 18.0758C17.8908 18.4275 17.4139 18.625 16.9166 18.625ZM4.4166 3.625C4.25084 3.625 4.09187 3.69085 3.97466 3.80806C3.85745 3.92527 3.7916 4.08424 3.7916 4.25V4.3C4.0791 8 5.92285 16.75 16.8791 17.375C16.9612 17.3801 17.0435 17.3689 17.1213 17.3421C17.1991 17.3153 17.2708 17.2734 17.3323 17.2188C17.3939 17.1642 17.4441 17.098 17.48 17.024C17.5159 16.95 17.5368 16.8696 17.5416 16.7875V13.45L15.1853 12.5062L13.3916 14.2875L13.0916 14.25C7.6541 13.5688 6.9166 8.13125 6.9166 8.075L6.8791 7.775L8.6541 5.98125L7.7166 3.625H4.4166Z" fill="white"/>
</svg>
