<svg width="20" height="16" viewBox="0 0 20 16" fill="none" xmlns="http://www.w3.org/2000/svg">
<path d="M20 3.53531C20 3.86421 19.8796 4.14378 19.6387 4.37402L10.2968 13.3038L8.54193 14.9812C8.30107 15.2115 8.0086 15.3266 7.66452 15.3266C7.32043 15.3266 7.02796 15.2115 6.7871 14.9812L5.03226 13.3038L0.36129 8.83891C0.12043 8.60868 0 8.32911 0 8.0002C0 7.6713 0.12043 7.39173 0.36129 7.16149L2.11613 5.48407C2.35699 5.25384 2.64946 5.13872 2.99355 5.13872C3.33763 5.13872 3.63011 5.25384 3.87097 5.48407L7.66452 9.12259L16.129 1.01918C16.3699 0.788945 16.6624 0.673828 17.0065 0.673828C17.3505 0.673828 17.643 0.788945 17.8839 1.01918L19.6387 2.6966C19.8796 2.92683 20 3.2064 20 3.53531Z" fill="#4ECB71"/>
</svg>
