<svg width="17" height="17" viewBox="0 0 17 17" fill="none" xmlns="http://www.w3.org/2000/svg">
<path fill-rule="evenodd" clip-rule="evenodd" d="M12.2765 10.088C12.0778 9.98869 11.1038 9.51003 10.9225 9.44336C10.7412 9.37736 10.6092 9.34469 10.4765 9.54336C10.3445 9.74069 9.96517 10.1874 9.84984 10.3194C9.73384 10.452 9.6185 10.468 9.4205 10.3694C9.2225 10.2694 8.58384 10.0607 7.82717 9.38603C7.2385 8.86069 6.8405 8.21203 6.72517 8.01336C6.60984 7.81536 6.7125 7.70803 6.81184 7.60936C6.90117 7.52069 7.00984 7.37803 7.10917 7.26269C7.2085 7.14669 7.24117 7.06403 7.30717 6.93136C7.37384 6.79936 7.3405 6.68403 7.2905 6.58469C7.24117 6.48536 6.84517 5.51003 6.67984 5.11336C6.51917 4.72736 6.35584 4.78003 6.2345 4.77336C6.1185 4.76803 5.9865 4.76669 5.8545 4.76669C5.7225 4.76669 5.50784 4.81603 5.3265 5.01469C5.1445 5.21269 4.63317 5.69203 4.63317 6.66736C4.63317 7.64203 5.3425 8.58403 5.44184 8.71669C5.54117 8.84869 6.8385 10.85 8.82584 11.708C9.29917 11.912 9.66784 12.034 9.95517 12.1247C10.4298 12.276 10.8618 12.2547 11.2032 12.2034C11.5832 12.1467 12.3752 11.724 12.5405 11.2614C12.7052 10.7987 12.7052 10.402 12.6558 10.3194C12.6065 10.2367 12.4745 10.1874 12.2758 10.088H12.2765ZM8.66184 15.0234H8.65917C7.47879 15.0236 6.32008 14.7063 5.3045 14.1047L5.0645 13.962L2.56984 14.6167L3.23584 12.1847L3.07917 11.9354C2.41926 10.8849 2.07003 9.66921 2.07184 8.42869C2.07317 4.79536 5.02917 1.83936 8.6645 1.83936C10.4245 1.83936 12.0792 2.52603 13.3232 3.77136C13.9368 4.38241 14.4231 5.10907 14.754 5.90929C15.085 6.70951 15.2539 7.56741 15.2512 8.43336C15.2498 12.0667 12.2938 15.0234 8.66184 15.0234ZM14.2698 2.82536C13.5353 2.08598 12.6613 1.49972 11.6986 1.10056C10.7358 0.701403 9.70339 0.497283 8.66117 0.500027C4.29184 0.500027 0.734504 4.05669 0.733171 8.42803C0.731146 9.81919 1.09609 11.1863 1.79117 12.3914L0.666504 16.5L4.86917 15.3974C6.03175 16.0308 7.33457 16.3627 8.6585 16.3627H8.66184C13.0312 16.3627 16.5885 12.806 16.5898 8.43403C16.5931 7.39221 16.3897 6.36009 15.9915 5.39738C15.5932 4.43467 15.0081 3.56047 14.2698 2.82536Z" fill="white"/>
</svg>
